/* XPM */
static char *_fe29abde718438ccd9c81ec27a2bedb[] = {
/* columns rows colors chars-per-pixel */
"16 16 88 1 ",
"  c black",
". c #001414",
"X c #001717",
"o c #001818",
"O c #002121",
"+ c #002323",
"@ c #002525",
"# c #0E2929",
"$ c #2A3A3A",
"% c #324040",
"& c #334141",
"* c #384646",
"= c #394646",
"- c #394747",
"; c #3A4747",
": c #3D4A4A",
"> c #424F4F",
", c #434F4F",
"< c #445050",
"1 c #465252",
"2 c #485353",
"3 c #546161",
"4 c #5C6666",
"5 c #677171",
"6 c #677777",
"7 c #6A7474",
"8 c #6B7474",
"9 c #6E7575",
"0 c #6E7D7D",
"q c #6F7E7E",
"w c #707777",
"e c #737A7A",
"r c #747A7A",
"t c #747B7B",
"y c #757B7B",
"u c #707C7C",
"i c #717C7C",
"p c #717D7D",
"a c #707E7E",
"s c #727E7E",
"d c #797F7F",
"f c #748181",
"g c #768282",
"h c #798383",
"j c #7D8383",
"k c #7D8686",
"l c #7E8888",
"z c #7F8888",
"x c #7F8989",
"c c #818686",
"v c #838888",
"b c #838989",
"n c #878B8B",
"m c #888D8D",
"M c #898D8D",
"N c #898E8E",
"B c #909595",
"V c #929797",
"C c #939898",
"Z c #959999",
"A c #959A9A",
"S c #969A9A",
"D c #989C9C",
"F c #9CA0A0",
"G c #9CA1A1",
"H c #9DA1A1",
"J c #9EA1A1",
"K c #A1A6A6",
"L c #A3A7A7",
"P c #A3A8A8",
"I c #A4A8A8",
"U c #A5A8A8",
"Y c #A5A9A9",
"T c #A6A9A9",
"R c #A6AAAA",
"E c #A7ABAB",
"W c #A9ADAD",
"Q c #AAADAD",
"! c #ABAEAE",
"~ c #ABAFAF",
"^ c #AFB3B3",
"/ c #B0B3B3",
"( c #B1B5B5",
") c #B2B5B5",
"_ c #B3B7B7",
"` c #B7BABA",
"' c #BFC2C2",
"] c None",
/* pixels */
"]]]]]pgpph0]]]]]",
"]]]6k9,O@,7z6]]]",
"]]0zo  gs  Xz0]]",
"]6k =mHP_In= k6]",
"]z bHy 4bOwHb z]",
"05 /j9yKCy9j/ 50",
"g2 m'^`//`^'m 2h",
"p% eHVSSSDVHe %0",
"p% c~~IWWI^Wc &p",
"g1 ^EEIIIIII~ 1g",
"g3cD        Dc3g",
"]emDVSVVCCCVGme]",
"]6g#=:====:=#h6]",
"]]phX  XX  Xh0]]",
"]]]6z5>$$>5z6]]]",
"]]]]]0gpeg0]]]]]"
};
