/* XPM */
static char *de54d382c96f4305ec95361c20ea57ea[] = {
/* columns rows colors chars-per-pixel */
"64 64 78 1 ",
"  c #000000",
". c #000C0C",
"X c #001313",
"o c #001C1C",
"O c #002525",
"+ c #082727",
"@ c #002828",
"# c #0D2C2C",
"$ c #122E2E",
"% c #013535",
"& c #093030",
"* c #013C3C",
"= c #163131",
"- c #193232",
"; c #1F3939",
": c #223636",
"> c #273939",
", c #2B3C3C",
"< c #303F3F",
"1 c #044343",
"2 c #174444",
"3 c #1C4646",
"4 c #1D4A4A",
"5 c #244A4A",
"6 c #2B4D4D",
"7 c #334343",
"8 c #364B4B",
"9 c #3C4B4B",
"0 c #325353",
"q c #424E4E",
"w c #455454",
"e c #4A5555",
"r c #455F5F",
"t c #4D5A5A",
"y c #525D5D",
"u c #536060",
"i c #5A6363",
"p c #546969",
"a c #5C6868",
"s c #636E6E",
"d c #6C7474",
"f c #6B7A7A",
"g c #747C7C",
"h c #787F7F",
"j c #7B8282",
"k c #7C8A8A",
"l c #848C8C",
"z c #869292",
"x c #8D9393",
"c c #8F9A9A",
"v c #919696",
"b c #959A9A",
"n c #999E9E",
"m c #9CA2A2",
"M c #A1A6A6",
"N c #A6ABAB",
"B c #AAAEAE",
"V c #ADB2B2",
"C c #B0B4B4",
"Z c #B6BABA",
"A c #BABDBD",
"S c #BCC2C2",
"D c #C2C6C6",
"F c #C6CACA",
"G c #C9CECE",
"H c #CDD1D1",
"J c #D2D5D5",
"K c #D6D9D9",
"L c #D9DCDC",
"P c #DFE2E2",
"I c #E4E6E6",
"U c #E6E8E8",
"Y c #EBEDED",
"T c #EEF0F0",
"R c #F3F5F5",
"E c #F7F8F8",
"W c #FCFDFD",
"Q c None",
/* pixels */
"QQQQQQQQQQQQQQQQQQQQQQQQQQ0653***12560QQQQQQQQQQQQQQQQQQQQQQQQQQ",
"QQQQQQQQQQQQQQQQQQQQQQ66%X  o%4004%o  X%50QQQQQQQQQQQQQQQQQQQQQQ",
"QQQQQQQQQQQQQQQQQQQ56%  rzBSGJHGGHKGSVzr  %65QQQQQQQQQQQQQQQQQQQ",
"QQQQQQQQQQQQQQQQQ65o pNHJFVcdi9>>9idvBFJHNp o55QQQQQQQQQQQQQQQQQ",
"QQQQQQQQQQQQQQQQ6o kGKZj=     XOoo     =jZKGl o6QQQQQQQQQQQQQQQQ",
"QQQQQQQQQQQQQQ6* kJJv@  @::-$#&@@+#$;;:@  @vJJk *6QQQQQQQQQQQQQQ",
"QQQQQQQQQQQQQ6 0FLl  @:$@@@@@@@##@@@@@@@=:+  lLF0 6QQQQQQQQQQQQQ",
"QQQQQQQQQQQ35 cIN  :-+@@@@@@@@+..+@@@@@@@@@=:  NIc 53QQQQQQQQQQQ",
"QQQQQQQQQQ51 SLy --@@@@@@@@@@+oeeo+@@@@@@@@@@-- yKS 15QQQQQQQQQQ",
"QQQQQQQQQ5*@JD  >@@@@@@@@@@@@: GH >@@@@@@@@@@@@>  DJ@*5QQQQQQQQQ",
"QQQQQQQQ5*1LV ==@@@@@@@@@@@$>$ ll =:$@@@@@@@@@@@== VL1*5QQQQQQQQ",
"QQQQQQQ31@LN >+@@@@@@@@@+-:  @nUUb@  :-+@@@@@@@@@+> NL@13QQQQQQQ",
"QQQQQQQ5 JV ,@@@@@@@@@#:#  uSEWHGWESu  $:#@@@@@@@@@, VJ 5QQQQQQQ",
"QQQQQQ6 SD >@@@@@@@@=:X  lLWESd @sCEWLl  X:=@@@@@@@@> DS 6QQQQQQ",
"QQQQQ6 cL $+@@@@@+:-  9VTWYm@ MYDFZ@mYWTB9  =:+@@@@@+= Lc 6QQQQQ",
"QQQQQ10Py =@@@@$>o  gGWWJj  # dI. GF  jJWWGg  O:$@@@@= uI0*QQQQQ",
"QQQQ6 FN >@@@=:  &nUWESy  =:- dI: eI&:  ySEWUn&  :=@@O> NF 6QQQQ",
"QQQ5okL -@+@$  aSEWYm@  :=@@$ dP  ML -=:  @mYWWAa  #O@@- Lko5QQQ",
"QQQ5 Jl =@@$ kLWWJh  @:$@@@@$ sTNZJa $@@$:O  hJWWLl $@@= lH 5QQQ",
"QQ6olH :@@+$ TWZy  =:+@@@@@@= dUvx@ $@@@@@+:=  tZWY -@@@: Jlo6QQ",
"QQ6 Gv -@@@# TB o:-@@@@@@+@@$ dP  +=@+@@+@@+@->o VT #@@@- cG 6QQ",
"QQ%pK@+@@@+# TC ,#$$$$$$#$$#- gY=-$$$##$#$$##$$, CT #+@@+@OKp%QQ",
"Q0 NZ :@@@@# TB o .    .  .   xFfX   .  .    . o BT $@@@@: ZB 6Q",
"Q5 Hj =@@@+$ YWIYTUYTTYUTYUTTTUYTUYTTUYTUYTTYYTUIWY $@@@@= jH 5Q",
"Q%rJ=@+@@@@#XvBEUmEYBNIEMLWCBDWSZWDBCWLMEINNYEMIEBvX#@@@@@@=Jr%Q",
"QXzF :@@@@@@+  YZ LG  DU nR  jWooWj  Tm UD  GL AY  +@@@@@@: GlXQ",
"0 VB :@@@@@@@;@TC JL  GU nWe bWqwWb tWm YG  LK CT@-+@@@@@@: BB 0",
"0 Sv =@@@@@@+o;EN GU  JL bWt nW<<Wn eWc LJ  UG NE;o+@@@@@@= vD 6",
"5oGd $@@@@@@#.qWb FY  LJ vWu NE@@EN uWv JL  YG nWq.#@@@@@@$ dGo5",
"2%Ki #@@@@@@# wWb DY  YG jWs CT  TC sWj FU  YD cWw #@@@@@@# iK%2",
"*4H9o+@@@@@@= yWx ZT. TD dEh DY  TD hWd GY .TC xWy =@@@@@@+o9H41",
"*0F,o@@@@@@@= sWh NR& YD aWx GY  YF xWa DT @RB hWs =@@@@@@@O,G0%",
"*0G>O@@@@@@@= hWs mW7 TC tWv GY  YG bWt CT 7Wm dEh =@@@@@@@o,F0*",
"14H9X+@@@@@@- xWu vWqXEN eWb HL  LJ bWe NRXqWv yWx -@@@@@@&X9H41",
"2%Ki #@@@@@@: vWt vWw<Wn 7EN LJ  JL ME7 nW7wWv tWv :@@@@@@# iK%2",
"5oGd $@@@@@@: vW< hWw$Wx  TB YG  GU VT  xW#wWj <Wv :@@@@@@$ dGo5",
"6 Dv -@@@@@@$&CEstzWldWMeuTFOTG99HTOGTywMWdlWztsEC&#+@@@@@= xD 6",
"6 VB :@@@@@$ PWWEWWWWWWWWEWWWWWWWWWEWWWEEWWWWWEEWWP $@@@@@: BV 0",
"QXzF :@@@@@$ TDahhhgggfgghgghdghhggggghgggggghhhaDT #+@@@@: FzXQ",
"Q%rJ-O@@@@->.TB                                  BTX>-@@@@@=Jr%Q",
"Q5 Hj =@@$   TC >======-=====-=================, CT   $@@$ jH 5Q",
"Q6 BZ :@= xHGWC :@@@@@@@@@@@@@@@@@@@@@@@+@@@@@@: CWGHx =@> ZN 0Q",
"QQ%pKO+@> HWJLl =@@@@@@@@@@@@@@@@@@@@@@@@@@@@@@= lLJWH :@+@Kp%QQ",
"QQ6 Gv ;: GJ  X-$=$==$$$$=$$$=$$$=$$$=$$$=$=$=$=-X  JH :- vG 6QQ",
"QQ5okJ ;: HL @                                    + LG :: Jlo5QQ",
"QQQ5 Jl < HI9saaaaaaaaaaaaaaaaaaaaaaaaaaaaaaaaaasas8IH < lH 5QQQ",
"QQQ5okL < SWEEEWEWEWWEEWEWWEWEWEEEEEWEWWEEWEWWEEEEEEWS , Kko5QQQ",
"QQQQ6 FN -9gghggghgghgghgghgghghhhhghggghghggghghghgg9; NF 6QQQQ",
"QQQQQ*0Iy @                                          @ yP0*QQQQQ",
"QQQQQ6 cL =-==--$-==--===--=$-==-======--======-====;= Lc 6QQQQQ",
"QQQQQQ6 SD >@@@@@@@@@@@@@@@@O@@@@@@@@@@@@@@@@@@@@@@@> SS 6QQQQQQ",
"QQQQQQQ6 JV >@@@@@@@@@@@@@@@@@@@@@@@@@@@@@@@@@@@@@@, CJ 6QQQQQQQ",
"QQQQQQQ31@LB >+@@@@@@@@@@@@@@@@@@@@@@@@@@@@@@@@@@+> BL@13QQQQQQQ",
"QQQQQQQQ5%1LC $=@@@@@@@@@@@@@@@@@@@@@@@@@@@@@@@@=$ CL**5QQQQQQQQ",
"QQQQQQQQQ5*@JD  >@@@@@@@@@@@@@@@@@@@@@@@@@@@@@@>  DJ@*5QQQQQQQQQ",
"QQQQQQQQQQ51 SLy -=@@@@@@@@@@@@@@@@@@@@@@@@@@-- yLS 15QQQQQQQQQQ",
"QQQQQQQQQQQ45 cPN  :-@@@@@@@@@@@@@@@@@@@@@@-:  NPc 53QQQQQQQQQQQ",
"QQQQQQQQQQQQQ6 0FLl  +:$@@@@@@@@@@@@@@@@-:@  lLF0 6QQQQQQQQQQQQQ",
"QQQQQQQQQQQQQQ61 kHJc@  @::==&+@@&#$=::O  @vJJk 15QQQQQQQQQQQQQQ",
"QQQQQQQQQQQQQQQQ6o lGKZj=     XOoX     =jZJGl o6QQQQQQQQQQQQQQQQ",
"QQQQQQQQQQQQQQQQQ55o pNHJFBxdi9,>9idvBFJHBp o55QQQQQQQQQQQQQQQQQ",
"QQQQQQQQQQQQQQQQQQQ66%  rzBDGKHFGHKGDBzr  %65QQQQQQQQQQQQQQQQQQQ",
"QQQQQQQQQQQQQQQQQQQQQQ05%X  o%4004%o  X%50QQQQQQQQQQQQQQQQQQQQQQ",
"QQQQQQQQQQQQQQQQQQQQQQQQQQ06521*%12560QQQQQQQQQQQQQQQQQQQQQQQQQQ"
};
