/* XPM */
static char *d5ef05a7c49b4d15cfcc5f7de4f6dfa2[] = {
/* columns rows colors chars-per-pixel */
"32 32 204 2 ",
"   c black",
".  c #000505",
"X  c #000606",
"o  c #000909",
"O  c #000C0C",
"+  c #000D0D",
"@  c #001111",
"#  c #001313",
"$  c #001414",
"%  c #001515",
"&  c #001B1B",
"*  c #002323",
"=  c #002525",
"-  c #002626",
";  c #002727",
":  c #002828",
">  c #022929",
",  c #042929",
"<  c #072A2A",
"1  c #072B2B",
"2  c #062C2C",
"3  c #082B2B",
"4  c #0D2C2C",
"5  c #0E2C2C",
"6  c #0F2D2D",
"7  c #0D2E2E",
"8  c #102D2D",
"9  c #122E2E",
"0  c #142F2F",
"q  c #152F2F",
"w  c #113030",
"e  c #153030",
"r  c #173030",
"t  c #173131",
"y  c #193131",
"u  c #1B3232",
"i  c #1C3232",
"p  c #1D3333",
"a  c #1E3434",
"s  c #1D3636",
"d  c #203535",
"f  c #213535",
"g  c #213636",
"h  c #233636",
"j  c #263939",
"k  c #253B3B",
"l  c #273A3A",
"z  c #283939",
"x  c #293A3A",
"c  c #283B3B",
"v  c #2B3C3C",
"b  c #2D3E3E",
"n  c #2E3E3E",
"m  c #064242",
"M  c #074242",
"N  c #294D4D",
"B  c #314040",
"V  c #394646",
"C  c #455050",
"Z  c #465050",
"A  c #465151",
"S  c #475353",
"D  c #4C6363",
"F  c #4D6363",
"G  c #516666",
"H  c #516767",
"J  c #5C6464",
"K  c #5D6464",
"L  c #5C6565",
"P  c #5D6565",
"I  c #5C6666",
"U  c #546969",
"Y  c #566A6A",
"T  c #566B6B",
"R  c #616A6A",
"E  c #626A6A",
"W  c #636B6B",
"Q  c #646C6C",
"!  c #666D6D",
"~  c #676E6E",
"^  c #676F6F",
"/  c #686E6E",
"(  c #6A7070",
")  c #6B7272",
"_  c #6B7373",
"`  c #6D7474",
"'  c #6E7474",
"]  c #6E7575",
"[  c #6F7676",
"{  c #6F7777",
"}  c #707676",
"|  c #707777",
" . c #717878",
".. c #727979",
"X. c #747A7A",
"o. c #767D7D",
"O. c #777E7E",
"+. c #7A8080",
"@. c #7A8181",
"#. c #828888",
"$. c #838888",
"%. c #838989",
"&. c #848989",
"*. c #848A8A",
"=. c #858A8A",
"-. c #858B8B",
";. c #868B8B",
":. c #878C8C",
">. c #898E8E",
",. c #8B9090",
"<. c #8C9292",
"1. c #8E9393",
"2. c #8C9898",
"3. c #8C9999",
"4. c #919595",
"5. c #909797",
"6. c #939898",
"7. c #979C9C",
"8. c #96A1A1",
"9. c #96A2A2",
"0. c #9BA1A1",
"q. c #9CA1A1",
"w. c #9DA1A1",
"e. c #9EA2A2",
"r. c #9FA3A3",
"t. c #9FA5A5",
"y. c #9FA7A7",
"u. c #A0A4A4",
"i. c #A0A5A5",
"p. c #A1A5A5",
"a. c #A0A7A7",
"s. c #A2A6A6",
"d. c #A0A8A8",
"f. c #A0A9A9",
"g. c #A1AAAA",
"h. c #A1ABAB",
"j. c #A2ABAB",
"k. c #A4A9A9",
"l. c #A5AAAA",
"z. c #A8ABAB",
"x. c #A8ACAC",
"c. c #AAADAD",
"v. c #AAAEAE",
"b. c #ABAEAE",
"n. c #ABAFAF",
"m. c #ABB0B0",
"M. c #AAB2B2",
"N. c #ACB0B0",
"B. c #ACB1B1",
"V. c #ADB1B1",
"C. c #AEB1B1",
"Z. c #AEB2B2",
"A. c #AFB2B2",
"S. c #AEB3B3",
"D. c #AFB3B3",
"F. c #AEB6B6",
"G. c #B0B4B4",
"H. c #B3B6B6",
"J. c #B4B8B8",
"K. c #B5B8B8",
"L. c #B5B9B9",
"P. c #B6B9B9",
"I. c #B7BABA",
"U. c #B8BBBB",
"Y. c #B9BCBC",
"T. c #B9BEBE",
"R. c #BBBEBE",
"E. c #BBBFBF",
"W. c #BDBFBF",
"Q. c #BDC0C0",
"!. c #BDC1C1",
"~. c #BEC0C0",
"^. c #BEC1C1",
"/. c #C0C3C3",
"(. c #C1C3C3",
"). c #C1C4C4",
"_. c #C2C4C4",
"`. c #C2C5C5",
"'. c #C4C6C6",
"]. c #C5C7C7",
"[. c #C4C8C8",
"{. c #C8CBCB",
"}. c #C9CCCC",
"|. c #CBCDCD",
" X c #CCCECE",
".X c #CCCFCF",
"XX c #CDCFCF",
"oX c #CED1D1",
"OX c #CED2D2",
"+X c #CFD2D2",
"@X c #D1D3D3",
"#X c #D1D4D4",
"$X c #D2D5D5",
"%X c #D3D6D6",
"&X c #D5D8D8",
"*X c #D7D9D9",
"=X c #D7DADA",
"-X c #DADCDC",
";X c #DBDDDD",
":X c #DFE0E0",
">X c #DFE1E1",
",X c #E3E5E5",
"<X c #E8EAEA",
"1X c None",
/* pixels */
"1X1X1X1X1X1X1X1X1X1X1X1X@ N D T U D N @ 1X1X1X1X1X1X1X1X1X1X1X1X",
"1X1X1X1X1X1X1X1X1X  H 4.h.d.q.5.4.0.a.h.4.H   1X1X1X1X1X1X1X1X1X",
"1X1X1X1X1X1X1X  T h.t.+.C &         & C +.a.h.T   1X1X1X1X1X1X1X",
"1X1X1X1X1X1X* 8.k.P     $ : d ; ; d : $     P k.8.; 1X1X1X1X1X1X",
"1X1X1X1X1Xm M.:.    u t 9 v   P P   b 9 t u     :.M.m 1X1X1X1X1X",
"1X1X1X1Xm F.(   i 9 u d     ; F.N.3     s u 9 i   ( F.m 1X1X1X1X",
"1X1X1X* M.(   x d 9     Q I.&XI.~.#XI.Q     9 d x   ( M.* 1X1X1X",
"1X1X  8.:.  b O   X ,.|.@Xa.: k.4.t.q.@X}.,.X   O b   :.8.  1X1X",
"1X1XT k.  j   C D.*X{.$.      N.S D.;   *.}.*XN.C   j   k.T 1X1X",
"1X  h.P O   ,.,XY.Q     b V   N.N.O.q B     Q Y.,X,.  O P h.  1X",
"1XH t.  b   J.*.              k.x               $.I.  b   t.H 1X",
"1X2.+.  v   M.XXn.D.N.N.N.N.N.XXY.N.N.N.N.N.N.n.oXN.  v   +.2.1X",
"@ h.C $ 5 ; s XX'.*X6.-X_.}.n.XX#Xn.{._.-X6.&X'.XXs ; 5 $ C h.@ ",
"N a.& < ; j   n.*.U.2 I.$.n.Q n.n.R n.$.I.2 Y.*.n.  j ; < & a.N ",
"D 0.  t : d   ~.$._.Q (.$.H.*.k.z.#.H.*.(.Q '.$.~.  d ; t   0.D ",
"T 4.  t : d   ~.X.R.} (.} I.4.a.a.5.I.] _.} R.X.~.  s ; t   4.T ",
"T 5.  t : i   [.R ~.$.Y./ ~.7.q.q.7.W./ Q.$.~.R [.  i : u   5.T ",
"D 0.  t ; d   _.x H.,.I.w I.q.$.$.q.I.q I.,.J.j '.  d ; q   0.D ",
"N t.& 2 q   +.<X~.-X#X,X~.:X-XoXoX-X:X~.:X#X-X~.<X+.  q 2 & t.N ",
"@ h.C @ x   n.n.R { } _ o._ ]  . .] ( o._ }  .R n.n.  x @ C d.@ ",
"1X4.@.  5  .&X:.  o                         O   :.&X .5   +.2.1X",
"1XH t.  5 #Xh.x                                 x h.#X5   t.H 1X",
"1X  h.P X oXQ ^ { { ] ] ] ] ] ] ] ] ] { ] { ] { Q Q oXX P h.  1X",
"1X1XT k.  M.[.~.~.~.~.~.~.~.~.(.~.~.~.^.~.~.~.~.~.[.N.  k.T 1X1X",
"1X1X  8.:.                                            :.8.  1X1X",
"1X1X1X* M.]   B i s s i i d i s d i s s d i s i B   ] M.* 1X1X1X",
"1X1X1X1Xm F.(   i 9 ; ; : : : : ; : ; : : ; 9 i   ( F.m 1X1X1X1X",
"1X1X1X1X1Xm M.:.    u t < : : : : : ; < t i     :.M.m 1X1X1X1X1X",
"1X1X1X1X1X1X* 8.k.P     $ < t t u t < $     P k.8.* 1X1X1X1X1X1X",
"1X1X1X1X1X1X1X  T h.t.+.C &         & C O.a.j.T   1X1X1X1X1X1X1X",
"1X1X1X1X1X1X1X1X1X  H 2.h.a.0.5.5.0.a.h.2.H   1X1X1X1X1X1X1X1X1X",
"1X1X1X1X1X1X1X1X1X1X1X1X@ N D H T D N @ 1X1X1X1X1X1X1X1X1X1X1X1X"
};
