/* XPM */
static char *_de38f77e3d44115fc298131a76347c7[] = {
/* columns rows colors chars-per-pixel */
"16 16 67 1 ",
"  c #003472",
". c #003572",
"X c #003971",
"o c #003C75",
"O c #003E76",
"+ c #053F75",
"@ c #0B4076",
"# c #174276",
"$ c #164377",
"% c #184376",
"& c #1A4477",
"* c #164378",
"= c #194478",
"- c #1B4478",
"; c #1C4578",
": c #244677",
"> c #204679",
", c #244879",
"< c #2A4B7B",
"1 c #2E4D7B",
"2 c #2D4C7C",
"3 c #2E4D7C",
"4 c #2F4D7C",
"5 c #314F7D",
"6 c #33507D",
"7 c #34507D",
"8 c #36517E",
"9 c #3B547E",
"0 c #2F4F80",
"q c #405780",
"w c #425982",
"e c #566789",
"r c #58698B",
"t c #596A8C",
"y c #5B6B8C",
"u c #737E97",
"i c #767F95",
"p c #748099",
"a c #78839B",
"s c #7B859B",
"d c #81899D",
"f c #848B9E",
"g c #828BA0",
"h c #848DA2",
"j c #8E95A4",
"k c #8F95A5",
"l c #9299A8",
"z c #979DAB",
"x c #9AA1B1",
"c c #9BA1B1",
"v c #9DA3B1",
"b c #A0A4B0",
"n c #A3A7B2",
"m c #A3A7B3",
"M c #A2A7B4",
"N c #A3A8B3",
"B c #A4A9B6",
"V c #A6ABB9",
"C c #A8ACB8",
"Z c #A8ADB9",
"A c #A9ADBA",
"S c #ACB1BD",
"D c #AFB3BC",
"F c #AFB3BD",
"G c #ACB1BE",
"H c #B0B3BD",
"J c #B2B6BF",
/* pixels */
"3333333333333303",
"0133333583333330",
"3333581o+3863333",
"3336, &au= ,3333",
"335;whlmJzgw=633",
"35*tMiXud:ivt$53",
"35*rJMZHZZNJe=53",
"333*vZVmBZZvo533",
"3336cSVZZVSc<113",
"36@ySmmmnnnHr@53",
"36oBa$w99q&sBo81",
"33>fkjjjkkkkf>53",
"336o#$$#**##+333",
"3336556363658133",
"0331333332333315",
"3633333113333303"
};
