/* XPM */
static char *_0a8da1eea364448a56d5ffc0eb4da3c[] = {
/* columns rows colors chars-per-pixel */
"64 64 138 2 ",
"   c black",
".  c #00000F",
"X  c #000015",
"o  c #00001F",
"O  c #000026",
"+  c #000037",
"@  c #00003C",
"#  c #000044",
"$  c #00004B",
"%  c #000055",
"&  c #000059",
"*  c #000A5B",
"=  c #00175F",
"-  c #00185F",
";  c #06325F",
":  c #223758",
">  c #263959",
",  c #000064",
"<  c #000C65",
"1  c #000368",
"2  c #000E69",
"3  c #001267",
"4  c #001F61",
"5  c #00166A",
"6  c #001B6B",
"7  c #002F67",
"8  c #00236B",
"9  c #002C6E",
"0  c #003064",
"q  c #00336D",
"w  c #00396D",
"e  c #1A3961",
"r  c #002F70",
"t  c #003171",
"y  c #003B73",
"u  c #203E68",
"i  c #0E4176",
"p  c #104176",
"a  c #1A4173",
"s  c #1C4579",
"d  c #26426B",
"f  c #29426A",
"g  c #234676",
"h  c #214779",
"j  c #26497A",
"k  c #2E4D7C",
"l  c #314F7C",
"z  c #34517E",
"x  c #3A537E",
"c  c #424D64",
"v  c #455067",
"b  c #4D566A",
"n  c #515A6C",
"m  c #42577E",
"M  c #5C6373",
"N  c #616775",
"B  c #375380",
"V  c #3B5581",
"C  c #335589",
"Z  c #435A83",
"A  c #4B5E83",
"S  c #4F6183",
"D  c #546586",
"F  c #566789",
"G  c #5C6C8C",
"H  c #636F8A",
"J  c #6D7484",
"K  c #65728F",
"L  c #707789",
"P  c #737B8B",
"I  c #697691",
"U  c #6D7992",
"Y  c #747F97",
"T  c #727E99",
"R  c #75809A",
"E  c #7A849B",
"W  c #7F889E",
"Q  c #81858E",
"!  c #848992",
"~  c #898F9C",
"^  c #8F939F",
"/  c #94979D",
"(  c #96999F",
")  c #828CA3",
"_  c #888FA0",
"`  c #8791A7",
"'  c #8B93A6",
"]  c #8C94A8",
"[  c #9197A6",
"{  c #979AA1",
"}  c #9B9DA4",
"|  c #939AAB",
" . c #999EAC",
".. c #9EA0A6",
"X. c #9BA1AF",
"o. c #9CA3B2",
"O. c #A2A4AA",
"+. c #A1A7B5",
"@. c #A4A9B5",
"#. c #A9ACB3",
"$. c #A6ACBA",
"%. c #A9AEBA",
"&. c #AFB1B6",
"*. c #AEB2BD",
"=. c #B2B3B7",
"-. c #B2B5BB",
";. c #B7B8BC",
":. c #AEB3C1",
">. c #B3B7C1",
",. c #B6BAC4",
"<. c #BDBFC3",
"1. c #BCBFC8",
"2. c #BEC2CB",
"3. c #C3C3C6",
"4. c #C3C6CD",
"5. c #C6C8CE",
"6. c #CCCCCE",
"7. c #C6C9D1",
"8. c #CBCDD5",
"9. c #CED0D6",
"0. c #CFD2D9",
"q. c #D3D4D6",
"w. c #D2D4DA",
"e. c #D7D8DB",
"r. c #D9DADE",
"t. c #DCDDE1",
"y. c #DFE0E4",
"u. c #E3E4E6",
"i. c #E4E5E9",
"p. c #E7E8EB",
"a. c #EAEBED",
"s. c #EEEFF0",
"d. c #EFF0F1",
"f. c #F2F3F3",
"g. c #F8F7F7",
"h. c #F5F6F8",
"j. c #FCFDFD",
"k. c None",
/* pixels */
"k.k k k k k k k k k k k k k k k k k k k k k k k k k k k k k k k k k k k k k k k k k k k k k k k k k k k k k k k k k k k k k k k.",
"k C k k k k k k k k k k k k k l k k l k k k k k k k k k k k k k k k k k k k k k k k k k k k k k k k k k k k k k k k k k k B C k ",
"k k k k k k k k k k k k k k k k k k k k k k k k k k k k k k k k k k k k k k k k k k k k k k k k k k k k k k k k k k k k k k k k ",
"k k k k k k k k k k k k k k k k k k k k k k k k k k k k k k k k k k k k k k k k k k k k k k k k k k k k k k k k k k k k k k k k ",
"k k k k k k k k k k k k k k k k k k k k k k k k k k k k k k k k k k k k k k k k k k k k k k k k k k l k k k k k k k k k k k k k ",
"k k k k k k k k k k k k k k k k k k k k k k k k k k k k k k k k k k k k k k k k k k k k k k k k k k k k k k k k k k k k k k k k ",
"k k k k k k k k k k k k k k k k k k k k k k k k k k k k k k k k k k k k k k k k k k k k k k k k k k k k k k k k k k k k k k k k ",
"k k k k k k k k k k k k k k k k k k k k k k k k k k k k k k k k k k k k k k k k k k k k k k k k k k k k k k k k k k k k k k k k ",
"k k k k k k k k k k k k k k k k k k k k k k k k k k k k k k k k k k l k k k k k k k k k k k k k k k k k k k k k k k k k k k k k ",
"k k k k k k k k k k k k k k k k k k k k k k k k k k k k k k k k k k k k k k k k k k l k k k k k k k k k k k k k k k k k k k k k ",
"l k k k k k k k k k k k k k k k k k k k k k k k k k k k k k k k k k k k k k k k k k k k k k k k k k k k k k k k k k k k k k k k ",
"k k k k k k k k k k k k k k k k k k k k k k k k k k k k k k k l l k k k k k k k k k k k k k k k k k k k k k k k k k k k k k k k ",
"k k k k k k k k k k k k k k k k k k k k k k k k k k k k k k l y y B k k k k k k k k k k k k k k k k k k k k k k k k k k k k k k ",
"k k k k k k k k k k k k k k k k k k k k k k k k k k k k l B r :.:.9 V k k k k k k k k k k k k k k k k k k k k k k k k k k k k k ",
"k k k k k k k k k k k k k k k k k k k k k k k k k k k z B l % [ [ & l B l l l k k k k k k k k k k k k k k k k k k k k k k k k k ",
"k k k k k k k k k k k k k k k k k k k k k k k k l z V p 1 j o.u.u.+.k 1 y Z l l k k k k k k k k k k k k k k k k k k k k k k k k ",
"k k k k k k k k k k k k k k k k k k k k k k l V l r , G 1.f.d.&.=.a.f.4.G , q l V l k k k k k k k k l k k k k k k k k k k k k k ",
"k k k k k k k k k k k k k k k k k k k l z V g 1 q ' t.j.p.O.! ^ { } O.i.j.t.' q 1 h V z k k k k k k k k k k k k k k k k k k k k ",
"k k k k k k k k k k k k k k k k k l x B t , Z :.a.j.w.! $ # ~ h. .<.5.# Q e.j.a.:.Z , t x x z k k k k k k k k k k k k k k k k k ",
"k k k k k k k k k k k k k k k k x j 5 5 R 8.g.f.2.M @ 4 x s H t.0 O w.o.$ # M 2.h.g.9.T 2 5 j x k k k k k k k k k k k k k k k k ",
"k k k k k k k k k k k k k k k k 6 j o.i.j.p.O.> # w V B B y U y.q 8 t.[ t Z w $ : O.i.j.i.o.j 5 k k k k k k k k k k k k k k k k ",
"k k k k k k k k k k k k k l j z ,.h.j.q.Q # % g V l k k l y K a.:.8.-.7 l l l V g % # Q q.j.h.,.B k k k k k k k k k k k k k k k ",
"k k k k k k k k k k k k k x t E j.3.b @ - z V l k k k k z y U u.~ J % k l k k l l V l - @ n 3.j.E t B k k k k k k k k k k k k k ",
"k k k k k k k k k k k k k z t E d.e q S Z V x V V V V V Z s I t.* w Z V V x x V x x m Z A w 0 d.W r B k k k k k k k k k k k k k ",
"k k k k k k k k k k k k k z t E d.g 1 , 1 , , , 2 , 1 1 , & ) u.G 1 , , , 1 , 2 , , , , , 1 a d.) t B k k k k k k k k k k k k k ",
"k k k k k k k k k l k k k z t E j.w.7.w.7.8.w.0.7.w.8.7.w.q.3.=.8.7.w.w.7.8.w.7.w.w.8.7.w.7.w.j.E t z k k k k k k k k k k k k k ",
"k k k k k k k k k k k k k l h A ;.i.j.3.j.p.3.e.j.6.a.g.5.6.f.<.8.j.8.5.h.a.6.j.e.3.p.j.3.g.p.;.S h l k k k k k k k k k k k k k ",
"k k k k k k k k k k k k k k k l   #.y.  t.-.  L f.X *.t.  $ s.P J s.$   e.-.. f.L   *.r.  u.#.  k l k k k k k k k k k k k k k k ",
"k k k k k k k k k k k k k k k V 6 2.u.# t.7.& | f.8 >.p.8 F f.Y T h.F 8 u.,.8 f.| & 7.r.% t.4.6 x k k k k k k k k k k k k k k k ",
"k k k k k k k k k k k k k k k V , 4.r.@ w.8.$ o.d.& %.p.3 G f.K K f.H 3 p.%.& s.o.$ 8.w.@ t.4., x k k k k k k k k k k k k k k k ",
"k k k k k k k k k k k k k k k V , 8.w.+ 9.w.$ @.a.& +.a.8 I f.G F h.U 6 a.@.& a.@.$ q.9.@ w.8., x k k k k k k k k k k k k k k k ",
"k k k k k k k k k k k k k k k V , w.8.+ 5.r.$ *.p.%  .s.q Y f.S S f.R 9 a.X.% p.:.# r.8.@ 8.e., x k k k k k k k k k k k k k k k ",
"k k k k k k k k k k k k k k k V < r.4.@ 2.y.$ >.u.% [ f.y W f.m m f.W t f.[ % u.>.$ y.3.# 4.r.< x k k k k k k k k k k k k k k k ",
"k k k k k k k k k k k k k k k l 6 r.2.# >.p.$ 2.r.% ) f.g _ s.k k f._ g f.) % t.2.$ i.,.# 2.y.6 z l k k k k k k k k k k k k k k ",
"k k k k k k k k k k k k k k k B 8 i.>.$ *.p.% 5.r.% E f.x | d.g a s.| x f.E % r.7.% a.*.# -.p.8 l l k k k k k k k k k k k k k k ",
"k k k k k k k k k k k k k k k l y p.*.$ @.a.& 8.w.% U h.A X.a.y w a.X.A f.U & w.9.& a.@.% %.p.y z k k k k k k k k k k k k k k k ",
"k k k k k k k k k k k k k k l h q a.X.$ | d.& 0.7.% D f.S +.p.3 < p.o.S f.D % 5.w.% d.| $ X.a.t j l k k k k k k k k k k k k k k ",
"k k k k k k k k k k k k k l p G u.j.f.a.f.j.a.j.j.a.d.j.d.g.j.a.a.j.h.f.j.f.p.j.j.a.j.f.a.h.j.i.K p k k k k k k k k k k k k k k ",
"k k k k k k k k k k k k k V t W g...{ ..} / ..( } ..} / } } { } ..( } } / ....{ ( ..( } ..{ } g.W t V k k k k k k k k k k k k k ",
"k k k k k k k k k k k k k z 5 T d.f % & % * % & & % % * % & * % % * & % * & % % & % * % & % u d.E 5 B k k k k k k k k k k k k k ",
"k k k k k k k k k k k l k z V [ f.F j V V B B B B B V B B V V B V B B V x B B B B B B V V k D f.[ V z k k k k k k k k k k k k k ",
"k k k k k k k k k k k x 8 %.h.g.f.m s l k k k l k k k k k k k k k k k k k k k k k k k k l h A d.g.g.%.6 V k k k k k k k k k k k ",
"k k k k k k k k k k k V , 4.i.N J m z x z x z z z z z z z x z z x z z z z x z z z z z x x x x N M u.4., V k k k k k k k k k k k ",
"k k k k k k k k k k k B , 3.w.O & t 9 t r t r r q t t q r r r r t r t r t t t 9 t r r r t t t , o w.4., V k k k k k k k k k k k ",
"k k k k k k k k k k k V , 7.p.T ` ) ) ) ) ) ) ) ) ) ) ) ) ) ) ) ) ) ) ) ) ) ) ) ) ) ) ) ) ) ) ` T p.4., V k k k k k k k k k k k ",
"k k k k k k k k k k k x 8 +.g.f.s.f.f.s.f.f.f.f.f.f.f.f.f.f.f.f.f.f.f.f.f.d.f.f.f.f.s.f.f.f.f.f.d.h.@.6 V k k k k k k k k k k k ",
"k k k k k k k k k k k k k d c v v v v v v v v v v v v v v v v v v v v v v v v v v v v v v v v v v c d k k k k k k k k k k k k k ",
"k k k k k k k k k k k k k k a a a a a a a a a a a a a a a a a p a a a a a a a a a a a a a a a a a a k k k k k k k k k k k k k k ",
"k k k k k k k k k k k k k k B l B B k B k B B k B k B k B k B B B k B k B k B B k B k B l l B l l l l k k k k k k k k k k k k k ",
"k k k k k k k k k k k k k k k k k k k k k j k k k k k k k k j k k k k k k k j k k k k k k k k k k k k k k k k k k k k k k k k k ",
"k k k k k k k k k k k k k k k k k k k k k k k k k k k k k k k k k k k k k k k k k k k k k k k k k k k k k k k k k k k l k k k k ",
"k k k k k k k k k k k k k k k k k k k k k k k k k k k k k k k k k k k k k k k k k k k k k k k k k k k k k k k k k k k k k k k k ",
"k k k k k k k k k k k k k k k k k k k k k k k k k k k k k k k k k k k k k k k k k k k k k k k k k k k k k k k k k k k k k k k k ",
"k k k k k k k k k k k k k k k k k k k k k k k k k k k k k k k k k k k k k k k k k k k k k k k k k k k k k k k k k k k k k k k k ",
"k k k k k k k k k k k k k k k k k k k k k k k k k k k k k k k k k k k k k k k k k k k k k k k k k k k k k k k k k k k k k k k k ",
"k k l k k k k k k k k k k k k k k k k k k k k k k k k k k k k k k k k k k k k k k k k k k k k k k k k k k k k k k k k k k k k k ",
"k k k k k k k k k k k k k k k k k k k k k k k k k k k k k k k k k k k k k k k k k k k k k k k k k k k k k k k k k k k k k k k k ",
"k k k k k k k k k k k k k k k k k k k k k k k k k k k k k k k k k k k k k k k k k k k k k k k k k k k k k k k k k k k k k k k k ",
"k k k k k k k k k k k k k k k k k k k k k k k k k k k k k k k k k k k k k k k k k k k k k k k k k k k k k k k k k k k k k k k k ",
"k k k k k k k k k k k k k k k k k k k k k k k k k k k k k k k k k k k k k k k k k k k k k k k k k k k k k k k k k k k k k k k k ",
"k k k k k k k k k k k k k k k k k k k k k k k k k k k k k k k k k k k k k k k k k k k k k k k k k k k k k k k k k k k k k k k k ",
"k l k k k k k k k k k k k k k k k k k k k k k k k k k k k k k k k k k k k k k k k k k k k k k k k k k k k k k k k k k k k k k k ",
"j C B k k k k k k k k k k k k k k k k k k k k k k k k k k k k k k k k k k k k k k k k k k k k k k k k k k k k k k k k k k k C k ",
"k.k k k k k k k k k k k k k k k k k k k k k k k k k k k k k k k k k k k k k k k k k k k k k k k k k k k k k k k k k k l k k k k."
};
