/* XPM */
static char *_f5940f8d1434cf78bfcce6d656d534b[] = {
/* columns rows colors chars-per-pixel */
"32 32 226 2 ",
"   c #00004B",
".  c #000057",
"X  c #00005D",
"o  c #00005F",
"O  c #000060",
"+  c #000067",
"@  c #000268",
"#  c #00166A",
"$  c #00176A",
"%  c #00186A",
"&  c #00196B",
"*  c #001A6B",
"=  c #001B6B",
"-  c #001D6B",
";  c #001F6C",
":  c #002A67",
">  c #00206C",
",  c #00216C",
"<  c #00236C",
"1  c #0D3765",
"2  c #003169",
"3  c #00386B",
"4  c #073868",
"5  c #173A66",
"6  c #002C71",
"7  c #002D71",
"8  c #002E70",
"9  c #003170",
"0  c #003071",
"q  c #003171",
"w  c #003371",
"e  c #003272",
"r  c #003372",
"t  c #003471",
"y  c #003572",
"u  c #003672",
"i  c #003772",
"p  c #003773",
"a  c #003873",
"s  c #053D72",
"d  c #003874",
"f  c #003975",
"g  c #003A75",
"h  c #003C75",
"j  c #003C76",
"k  c #003D76",
"l  c #003E77",
"z  c #063F75",
"x  c #0A3D72",
"c  c #093F76",
"v  c #003F78",
"b  c #034078",
"n  c #194478",
"m  c #1B4478",
"M  c #27497A",
"N  c #274A7A",
"B  c #2A4B7B",
"V  c #2B4B7B",
"C  c #2D4A78",
"Z  c #2D4B78",
"A  c #2C4C7B",
"S  c #2E4D7B",
"D  c #2B4C7C",
"F  c #2C4C7C",
"G  c #2D4C7C",
"H  c #2D4D7C",
"J  c #2D4D7D",
"K  c #2E4D7C",
"L  c #2F4D7C",
"P  c #2E4E7C",
"I  c #2F4E7C",
"U  c #2F4F7F",
"Y  c #304E7C",
"T  c #304F7D",
"R  c #314F7D",
"E  c #324F7D",
"W  c #324F7E",
"Q  c #33507D",
"!  c #34507D",
"~  c #34507E",
"^  c #35517E",
"/  c #36517E",
"(  c #37527E",
")  c #37527F",
"_  c #38537F",
"`  c #39537F",
"'  c #3A547F",
"]  c #355280",
"[  c #385481",
"{  c #3B5480",
"}  c #3B5580",
"|  c #3D5680",
" . c #4D6186",
".. c #4E6287",
"X. c #56678A",
"o. c #57688B",
"O. c #626D84",
"+. c #697288",
"@. c #697388",
"#. c #6C758A",
"$. c #6A7794",
"%. c #6A7895",
"&. c #797F90",
"*. c #717D99",
"=. c #717E9A",
"-. c #798090",
";. c #7B8292",
":. c #7C8292",
">. c #7C8396",
",. c #78829A",
"<. c #79849B",
"1. c #7A849B",
"2. c #78839C",
"3. c #7C869C",
"4. c #7D869C",
"5. c #808795",
"6. c #818796",
"7. c #838997",
"8. c #848A98",
"9. c #848A99",
"0. c #80899E",
"q. c #8D929E",
"w. c #868EA2",
"e. c #868EA3",
"r. c #8890A3",
"t. c #8C92A1",
"y. c #8991A4",
"u. c #8A92A5",
"i. c #8C95AA",
"p. c #9599A4",
"a. c #9097A9",
"s. c #959BAA",
"d. c #9199AD",
"f. c #929AAD",
"g. c #989EAE",
"h. c #989EAF",
"j. c #9AA0AF",
"k. c #9AA0B0",
"l. c #9AA1B2",
"z. c #9AA1B3",
"x. c #9BA2B3",
"c. c #9DA3B2",
"v. c #9CA2B3",
"b. c #9CA3B3",
"n. c #9DA3B3",
"m. c #9DA4B3",
"M. c #9EA4B2",
"N. c #9EA4B3",
"B. c #9FA5B3",
"V. c #9EA5B5",
"C. c #9FA5B5",
"Z. c #A1A5AF",
"A. c #A1A6B2",
"S. c #A0A6B4",
"D. c #A2A7B4",
"F. c #A2A7B5",
"G. c #A0A7B7",
"H. c #A2A8B5",
"J. c #A3A8B5",
"K. c #A3A8B6",
"L. c #A3A9B6",
"P. c #A4A9B5",
"I. c #A4A9B7",
"U. c #A4AAB6",
"Y. c #A5AAB6",
"T. c #A4AAB7",
"R. c #A5AAB7",
"E. c #A6ABB7",
"W. c #A3A9B8",
"Q. c #A4AAB9",
"!. c #A6ABB8",
"~. c #A7ACB8",
"^. c #A7ADB9",
"/. c #A8ADB9",
"(. c #A8ADBA",
"). c #A9AEBA",
"_. c #A9AEBB",
"`. c #AAAFBB",
"'. c #ABAFBC",
"]. c #AFB3BD",
"[. c #B0B4BE",
"{. c #B4B6BD",
"}. c #B5B7BE",
"|. c #B6B8BE",
" X c #AFB4C0",
".X c #B1B5C0",
"XX c #B1B5C1",
"oX c #B6B9C0",
"OX c #B7BAC0",
"+X c #B8BBC1",
"@X c #B9BBC1",
"#X c #B9BBC2",
"$X c #BCBDC2",
"%X c #BCBEC2",
"&X c #B8BCC5",
"*X c #B9BCC5",
"=X c #BABDC4",
"-X c #BABDC6",
";X c #C2C3C7",
":X c #C2C4C9",
">X c #C4C5CA",
",X c #C2C5CD",
"<X c #C3C6CD",
"1X c #C3C6CE",
"2X c #C5C7CC",
"3X c #C4C7CE",
"4X c #C7C8CD",
"5X c #C7C9CE",
"6X c #C8CBD1",
"7X c #CACBD0",
"8X c #C8CBD2",
"9X c #CACCD0",
"0X c #CBCDD3",
"qX c #CBCED3",
"wX c #CCCDD1",
"eX c #CCCED4",
"rX c #CFD0D4",
"tX c #CFD1D7",
"yX c #CFD2D8",
"uX c #D0D2D6",
"iX c #D2D3D6",
"pX c #D2D3D7",
"aX c #D3D4D7",
"sX c #D4D5D7",
"dX c #D7D9DD",
"fX c None",
/* pixels */
"fXS A L L S U A U A L L S U S U A L L S L S U A L L L L S A L fX",
"U U L A S S A L S L A L L A L L L A A U L A A L U S A L S U Y S ",
"S U A U A L L L A L S L A S U A A U L A A L L A A L L A U S U U ",
"S S A S L A U S L A U L L L A L L S L L U S L L L A S U A L A A ",
"A L S L L A L A Y G U A A U G Y Y A A S S U U A U S A L L L S U ",
"L A U L S U L L G Y A L S A ~ M V ~ V U A A S A A L L A A L L A ",
"L S L A L L S U A A S L ~ ' p  . .p | ~ L A G A L A S U L A A L ",
"A U A U S A L A A U ' / p $ [ `.~.[ $ p / ' Y U L L L L A U S L ",
"L L S U A A S U ' V < 8 *..X2X@X;X5X X*.6 , D { S U S S S A S U ",
"A L L A U S Y G - V d.,X;Xp.4 A.t.Z.q.>X,Xd.D , A L U S U A L A ",
"L A A L S S U D I.uX%X:.2 p p `.I.s.+ 3 ;.%XyX!.A S U S L A A L ",
"A U S L U / 9 2.9X5   o 6 p o `.>.. p 6 o   1 9X,.6 / S A U S L ",
"L L L L S / r 1.8Xi.D.V.z.z.k.*XA.k.b.z.V.D.i.8X1.9 ' A L U A L ",
"U S A L U Y Y s oXaXwX|.aXrX{.;X9X}.uXyX|.wXsXoXx Y A L L S L A ",
"A L L A A S ' $ u.D.D.3.E.E.,.`.!.,.E.E.1.D.E.u.& { A A L A L S ",
"L A S U A L ' - m.I.'.k.!.`.h.^.`.h.`.E.k.`.D.V.- ' U S L L A U ",
"L L A U A U ' - E.j.`.I.c.!.E.K.D.D.!.c.E.`.h.I.- _ U A S A A L ",
"S A L G S G } + D.0.m.`.e.h.!.a.a.`.h.e.`.m.0.E.@ } A S S U U S ",
"U A G Y U A Q / yX,XuXdX2X8XdX8X8XdXwX2XdXyX,XrX/ Y U S U S A L ",
"A L L A A ' & $.5X&.9.6.9.9.6.7.9.6.9.9.6.9.-.5X%.$ ' A A L L A ",
"L U A L Y m o.0X{.O z p p p p p p p p p p c o ].0XX.m Y L L S U ",
"L S L A ' * c.@X: v h h h g g h h g h h g g v : @Xc.$ ' A L L A ",
"L A L S ' 8 u.0X.X*X*X*X*X*X*X*X*X*X*X*X*X*X*X.X9Xr.8 ' L A A L ",
"L L A U A U A O.#.@.@.@.@.@.@.@.@.@.@.@.@.@.@.#.O.A L L A U S L ",
"S U S U A L A h a g g a g g a g g a g p g a g g h G U A L L S U ",
"L A L L L A Y / ~ ~ / ~ / / ! ! / ~ ~ ! ~ ! ~ ~ ~ Y S L A L L A ",
"A S U A A U U A A L S L S U A U S S S U S S L L U U A L L A A L ",
"L L A L L G Y A L A U L S S A S S U S L A U A L A G L A A U S L ",
"S L L A A S U A L S U A A L G Y S A A S A L L A A U L A L U A L ",
"U L A U L L A L L A A L L A U G S U A U L A S U L S L L L S L A ",
"A Y S S A L L L A L L A L S A Y L A A L S U L A A L U A A U Y U ",
"U S S L L A U S U S L L A U L L A U S L L L A U S L S S S S S fX"
};
